<svg xmlns="http://www.w3.org/2000/svg" width="20" height="20" viewBox="0 0 20 20" fill="none">
  <path d="M18.125 5.46875C17.9807 6.35889 16.9336 8.61073 14.9844 12.2226C12.9505 16.0234 11.2891 17.9062 9.99219 17.9062C9.18587 17.9062 8.51042 17.1602 7.9668 15.6699C7.44141 14.2604 6.9668 12.8516 6.54297 11.4421C6.08724 9.95313 5.58854 9.20833 5.04883 9.20833C4.92058 9.20833 4.42708 9.50521 3.57031 10.0977L2.81641 9.0957C3.72656 8.29297 4.62109 7.49023 5.5 6.6875C6.74479 5.64583 7.65625 5.09245 8.23437 5.02734C9.4401 4.88932 10.1445 5.60872 10.3477 7.18099C10.5703 8.91927 10.7148 9.98828 10.7812 10.3906C11.0547 12.0508 11.3672 12.8802 11.7188 12.8802C12.0052 12.8802 12.4466 12.4232 13.0443 11.5117C13.6406 10.6003 13.9583 9.91797 14 9.4624C14.0833 8.63802 13.7435 8.2259 12.9844 8.2259C12.612 8.2259 12.2292 8.30078 11.8359 8.4388C12.5885 6.09375 14.0833 4.96875 16.3203 5.0599C17.9128 5.11523 18.1562 5.99609 18.125 5.46875Z" stroke="white" stroke-width="1.5" stroke-linecap="round" stroke-linejoin="round"/>
</svg>
