<svg xmlns="http://www.w3.org/2000/svg" width="120" height="60" viewBox="0 0 120 60" fill="none">
  <path d="M20 15H25V45H20V15Z" fill="white"/>
  <path d="M30 15H35V25H48V15H53V45H48V30H35V45H30V15Z" fill="white"/>
  <path d="M55 15H60V45H55V15Z" fill="white"/>
  <path d="M65 15H70V40H83V45H65V15Z" fill="white"/>
  <path d="M85 15H104V20H90V27H102V32H90V40H104V45H85V15Z" fill="white"/>
  <path d="M15 50L15 48L105 48L105 50L15 50Z" fill="white"/>
  <path d="M23.228 54.14H20V53H28V54.14H24.772V60H23.228V54.14Z" fill="white"/>
  <path d="M29.684 53H31.36L34.28 60H32.568L31.96 58.54H29.056L28.448 60H26.764L29.684 53ZM31.512 57.4L30.52 54.98L29.516 57.4H31.512Z" fill="white"/>
  <path d="M35.6281 53H37.1721V60H35.6281V53Z" fill="white"/>
  <path d="M43.5201 53H44.9921L48.0161 57.06V53H49.5601V60H48.1201L45.0641 55.88V60H43.5201V53Z" fill="white"/>
  <path d="M53.0883 53H54.6323V60H53.0883V53Z" fill="white"/>
  <path d="M56.5764 53H58.2524L61.1724 60H59.4604L58.8524 58.54H55.9484L55.3404 60H53.6564L56.5764 53ZM58.4044 57.4L57.4124 54.98L56.4084 57.4H58.4044Z" fill="white"/>
  <path d="M64.9085 53H66.9605C67.8658 53 68.6018 53.24 69.1685 53.72C69.7378 54.2 70.0225 54.8733 70.0225 55.74C70.0225 56.6067 69.7378 57.2867 69.1685 57.78C68.6018 58.26 67.8658 58.5 66.9605 58.5H66.4525V60H64.9085V53ZM66.9605 57.36C67.4818 57.36 67.8765 57.24 68.1445 57C68.4151 56.76 68.5505 56.4067 68.5505 55.94C68.5505 55.4733 68.4151 55.12 68.1445 54.88C67.8765 54.64 67.4818 54.52 66.9605 54.52H66.4525V57.36H66.9605Z" fill="white"/>
  <path d="M71.9062 53H73.4502V60H71.9062V53Z" fill="white"/>
  <path d="M79.0501 60.14C78.3681 60.14 77.7741 59.9933 77.2681 59.7C76.7621 59.4067 76.3701 58.9933 76.0921 58.46C75.8141 57.9267 75.6751 57.3067 75.6751 56.6C75.6751 55.8933 75.8141 55.2733 76.0921 54.74C76.3701 54.2067 76.7621 53.7933 77.2681 53.5C77.7741 53.2067 78.3681 53.06 79.0501 53.06C79.7321 53.06 80.3488 53.2067 80.9001 53.5C81.4514 53.7933 81.8774 54.2 82.1781 54.72L80.9961 55.5C80.7834 55.1267 80.5274 54.84 80.2281 54.64C79.9288 54.44 79.5768 54.34 79.1721 54.34C78.7674 54.34 78.4068 54.4333 78.0901 54.62C77.7734 54.8067 77.5281 55.08 77.3541 55.44C77.1801 55.8 77.0931 56.2267 77.0931 56.72C77.0931 57.2133 77.1801 57.64 77.3541 58C77.5281 58.36 77.7734 58.6333 78.0901 58.82C78.4068 59.0067 78.7674 59.1 79.1721 59.1C79.5768 59.1 79.9288 59 80.2281 58.8C80.5274 58.6 80.7834 58.3133 80.9961 57.94L82.1781 58.7C81.8774 59.22 81.4514 59.6267 80.9001 59.92C80.3488 60.2133 79.7321 60.14 79.0501 60.14Z" fill="white"/>
  <path d="M87.1945 53.14H84.7145V53H91.2185V53.14H88.7385V60H87.1945V53.14Z" fill="white"/>
  <path d="M92.4684 53H94.0124V60H92.4684V53Z" fill="white"/>
  <path d="M96.148 53H100.348C101.014 53 101.588 53.14 102.068 53.42C102.548 53.7 102.914 54.0933 103.168 54.6C103.422 55.1067 103.548 55.7 103.548 56.38C103.548 57.06 103.422 57.6533 103.168 58.16C102.914 58.6667 102.548 59.06 102.068 59.34C101.588 59.62 101.014 59.76 100.348 59.76H96.148V53ZM100.208 58.24C100.698 58.24 101.102 58.1267 101.428 57.9C101.754 57.6733 101.995 57.3667 102.148 56.98C102.302 56.5933 102.378 56.1533 102.378 55.66C102.378 55.1667 102.302 54.7267 102.148 54.34C101.995 53.9533 101.754 53.6467 101.428 53.42C101.102 53.1933 100.698 53.08 100.208 53.08H97.692V58.24H100.208Z" fill="white"/>
  <path d="M105.359 53H112.259V54.52H106.903V55.7H111.663V57.22H106.903V58.48H112.259V60H105.359V53Z" fill="white"/>
</svg>
